<svg width="382" height="215" viewBox="0 0 382 215" fill="none" xmlns="http://www.w3.org/2000/svg">
<rect width="382" height="215" fill="#415A77"/>
<path d="M64.4545 142V72.1818H72.9091V134.5H105.364V142H64.4545ZM174.645 107.091C174.645 114.455 173.315 120.818 170.656 126.182C167.997 131.545 164.349 135.682 159.713 138.591C155.077 141.5 149.781 142.955 143.827 142.955C137.872 142.955 132.577 141.5 127.94 138.591C123.304 135.682 119.656 131.545 116.997 126.182C114.338 120.818 113.009 114.455 113.009 107.091C113.009 99.7273 114.338 93.3636 116.997 88C119.656 82.6364 123.304 78.5 127.94 75.5909C132.577 72.6818 137.872 71.2273 143.827 71.2273C149.781 71.2273 155.077 72.6818 159.713 75.5909C164.349 78.5 167.997 82.6364 170.656 88C173.315 93.3636 174.645 99.7273 174.645 107.091ZM166.463 107.091C166.463 101.045 165.452 95.9432 163.429 91.7841C161.429 87.625 158.713 84.4773 155.281 82.3409C151.872 80.2045 148.054 79.1364 143.827 79.1364C139.599 79.1364 135.77 80.2045 132.338 82.3409C128.929 84.4773 126.213 87.625 124.19 91.7841C122.19 95.9432 121.19 101.045 121.19 107.091C121.19 113.136 122.19 118.239 124.19 122.398C126.213 126.557 128.929 129.705 132.338 131.841C135.77 133.977 139.599 135.045 143.827 135.045C148.054 135.045 151.872 133.977 155.281 131.841C158.713 129.705 161.429 126.557 163.429 122.398C165.452 118.239 166.463 113.136 166.463 107.091ZM236.588 94C235.838 91.7045 234.849 89.6477 233.622 87.8295C232.418 85.9886 230.974 84.4205 229.293 83.125C227.634 81.8295 225.747 80.8409 223.634 80.1591C221.52 79.4773 219.202 79.1364 216.679 79.1364C212.543 79.1364 208.781 80.2045 205.395 82.3409C202.009 84.4773 199.315 87.625 197.315 91.7841C195.315 95.9432 194.315 101.045 194.315 107.091C194.315 113.136 195.327 118.239 197.349 122.398C199.372 126.557 202.111 129.705 205.565 131.841C209.02 133.977 212.906 135.045 217.224 135.045C221.224 135.045 224.747 134.193 227.793 132.489C230.861 130.761 233.247 128.33 234.952 125.193C236.679 122.034 237.543 118.318 237.543 114.045L240.134 114.591H219.134V107.091H245.724V114.591C245.724 120.341 244.497 125.341 242.043 129.591C239.611 133.841 236.247 137.136 231.952 139.477C227.679 141.795 222.77 142.955 217.224 142.955C211.043 142.955 205.611 141.5 200.929 138.591C196.27 135.682 192.634 131.545 190.02 126.182C187.429 120.818 186.134 114.455 186.134 107.091C186.134 101.568 186.872 96.6023 188.349 92.1932C189.849 87.7614 191.963 83.9886 194.69 80.875C197.418 77.7614 200.645 75.375 204.372 73.7159C208.099 72.0568 212.202 71.2273 216.679 71.2273C220.361 71.2273 223.793 71.7841 226.974 72.8977C230.179 73.9886 233.031 75.5455 235.531 77.5682C238.054 79.5682 240.156 81.9659 241.838 84.7614C243.52 87.5341 244.679 90.6136 245.315 94H236.588ZM319.114 107.091C319.114 114.455 317.784 120.818 315.125 126.182C312.466 131.545 308.818 135.682 304.182 138.591C299.545 141.5 294.25 142.955 288.295 142.955C282.341 142.955 277.045 141.5 272.409 138.591C267.773 135.682 264.125 131.545 261.466 126.182C258.807 120.818 257.477 114.455 257.477 107.091C257.477 99.7273 258.807 93.3636 261.466 88C264.125 82.6364 267.773 78.5 272.409 75.5909C277.045 72.6818 282.341 71.2273 288.295 71.2273C294.25 71.2273 299.545 72.6818 304.182 75.5909C308.818 78.5 312.466 82.6364 315.125 88C317.784 93.3636 319.114 99.7273 319.114 107.091ZM310.932 107.091C310.932 101.045 309.92 95.9432 307.898 91.7841C305.898 87.625 303.182 84.4773 299.75 82.3409C296.341 80.2045 292.523 79.1364 288.295 79.1364C284.068 79.1364 280.239 80.2045 276.807 82.3409C273.398 84.4773 270.682 87.625 268.659 91.7841C266.659 95.9432 265.659 101.045 265.659 107.091C265.659 113.136 266.659 118.239 268.659 122.398C270.682 126.557 273.398 129.705 276.807 131.841C280.239 133.977 284.068 135.045 288.295 135.045C292.523 135.045 296.341 133.977 299.75 131.841C303.182 129.705 305.898 126.557 307.898 122.398C309.92 118.239 310.932 113.136 310.932 107.091Z" fill="white"/>
</svg>
